<mxfile host="Electron" agent="Mozilla/5.0 (X11; Linux x86_64) AppleWebKit/537.36 (KHTML, like Gecko) draw.io/24.7.17 Chrome/128.0.6613.36 Electron/32.0.1 Safari/537.36" version="24.7.17">
  <diagram name="Page-1" id="e7e014a7-5840-1c2e-5031-d8a46d1fe8dd">
    <mxGraphModel dx="5580" dy="2803" grid="0" gridSize="10" guides="0" tooltips="1" connect="0" arrows="1" fold="1" page="0" pageScale="1" pageWidth="1169" pageHeight="826" background="none" math="0" shadow="0">
      <root>
        <mxCell id="0" />
        <mxCell id="1" parent="0" />
        <mxCell id="GOKQv8CPCW2Fxh-G2tMz-41" value="" style="ellipse;whiteSpace=wrap;html=1;aspect=fixed;fillColor=#000000;" parent="1" vertex="1">
          <mxGeometry x="418" y="53" width="59" height="59" as="geometry" />
        </mxCell>
        <mxCell id="GOKQv8CPCW2Fxh-G2tMz-42" value="Controlar&amp;nbsp;&lt;div&gt;sistema&lt;/div&gt;" style="rounded=1;whiteSpace=wrap;html=1;fontSize=17;" parent="1" vertex="1">
          <mxGeometry x="392" y="170" width="120" height="60" as="geometry" />
        </mxCell>
        <mxCell id="GOKQv8CPCW2Fxh-G2tMz-44" style="edgeStyle=orthogonalEdgeStyle;rounded=0;orthogonalLoop=1;jettySize=auto;html=1;entryX=0.469;entryY=0.011;entryDx=0;entryDy=0;entryPerimeter=0;endArrow=open;endFill=0;" parent="1" source="GOKQv8CPCW2Fxh-G2tMz-41" target="GOKQv8CPCW2Fxh-G2tMz-42" edge="1">
          <mxGeometry relative="1" as="geometry" />
        </mxCell>
        <mxCell id="GOKQv8CPCW2Fxh-G2tMz-45" value="&lt;div style=&quot;text-align: start; font-size: 11px;&quot;&gt;Tipo de Atores&lt;/div&gt;" style="rhombus;whiteSpace=wrap;html=1;fontSize=11;" parent="1" vertex="1">
          <mxGeometry x="397" y="269" width="112" height="80" as="geometry" />
        </mxCell>
        <mxCell id="GOKQv8CPCW2Fxh-G2tMz-46" style="edgeStyle=orthogonalEdgeStyle;rounded=0;orthogonalLoop=1;jettySize=auto;html=1;entryX=0.493;entryY=0.004;entryDx=0;entryDy=0;entryPerimeter=0;endArrow=open;endFill=0;" parent="1" source="GOKQv8CPCW2Fxh-G2tMz-42" target="GOKQv8CPCW2Fxh-G2tMz-45" edge="1">
          <mxGeometry relative="1" as="geometry" />
        </mxCell>
        <mxCell id="GOKQv8CPCW2Fxh-G2tMz-47" value="Logar u&lt;span style=&quot;font-size: 15px; text-wrap: nowrap;&quot;&gt;suário&lt;/span&gt;" style="rounded=1;whiteSpace=wrap;html=1;fontSize=15;" parent="1" vertex="1">
          <mxGeometry x="21" y="278" width="120" height="60" as="geometry" />
        </mxCell>
        <mxCell id="GOKQv8CPCW2Fxh-G2tMz-48" style="edgeStyle=orthogonalEdgeStyle;rounded=0;orthogonalLoop=1;jettySize=auto;html=1;entryX=1.008;entryY=0.514;entryDx=0;entryDy=0;entryPerimeter=0;endArrow=open;endFill=0;" parent="1" source="GOKQv8CPCW2Fxh-G2tMz-45" target="GOKQv8CPCW2Fxh-G2tMz-47" edge="1">
          <mxGeometry relative="1" as="geometry" />
        </mxCell>
        <mxCell id="GOKQv8CPCW2Fxh-G2tMz-49" value="[Usuário Admin/&lt;div&gt;Usuário Master/&lt;span style=&quot;background-color: initial;&quot;&gt;Usuário d&lt;/span&gt;&lt;span style=&quot;background-color: initial;&quot;&gt;ono de andar]&lt;/span&gt;&lt;/div&gt;" style="text;html=1;align=center;verticalAlign=middle;resizable=0;points=[];autosize=1;strokeColor=none;fillColor=none;" parent="1" vertex="1">
          <mxGeometry x="158" y="267" width="228" height="41" as="geometry" />
        </mxCell>
        <mxCell id="GOKQv8CPCW2Fxh-G2tMz-51" style="edgeStyle=orthogonalEdgeStyle;rounded=0;orthogonalLoop=1;jettySize=auto;html=1;entryX=0.49;entryY=0.019;entryDx=0;entryDy=0;entryPerimeter=0;endArrow=open;endFill=0;" parent="1" source="GOKQv8CPCW2Fxh-G2tMz-47" target="2dEZNZgoz_LOyK3TEeMp-9" edge="1">
          <mxGeometry relative="1" as="geometry">
            <mxPoint x="81.11200000000008" y="397.3599999999999" as="targetPoint" />
          </mxGeometry>
        </mxCell>
        <mxCell id="GOKQv8CPCW2Fxh-G2tMz-72" value="" style="ellipse;html=1;shape=endState;fillColor=#000000;strokeColor=#000000;" parent="1" vertex="1">
          <mxGeometry x="166" y="2175" width="30" height="30" as="geometry" />
        </mxCell>
        <mxCell id="GOKQv8CPCW2Fxh-G2tMz-73" value="" style="rounded=0;whiteSpace=wrap;html=1;fillColor=#000000;" parent="1" vertex="1">
          <mxGeometry x="121" y="2129" width="120" height="16" as="geometry" />
        </mxCell>
        <mxCell id="GOKQv8CPCW2Fxh-G2tMz-74" style="edgeStyle=orthogonalEdgeStyle;rounded=0;orthogonalLoop=1;jettySize=auto;html=1;entryX=0.506;entryY=0.013;entryDx=0;entryDy=0;entryPerimeter=0;endArrow=open;endFill=0;" parent="1" source="GOKQv8CPCW2Fxh-G2tMz-73" target="GOKQv8CPCW2Fxh-G2tMz-72" edge="1">
          <mxGeometry relative="1" as="geometry" />
        </mxCell>
        <mxCell id="GOKQv8CPCW2Fxh-G2tMz-82" value="[Sistema ou Alarme de Emergência&lt;div&gt;/Sistema ou Alarme de Incêndio/&lt;/div&gt;&lt;div&gt;Balança do elevador]&lt;/div&gt;" style="text;html=1;align=center;verticalAlign=middle;resizable=0;points=[];autosize=1;strokeColor=none;fillColor=none;" parent="1" vertex="1">
          <mxGeometry x="558" y="256" width="206" height="55" as="geometry" />
        </mxCell>
        <mxCell id="2dEZNZgoz_LOyK3TEeMp-1" value="&lt;div style=&quot;text-align: start; font-size: 11px;&quot;&gt;Credenciais&lt;/div&gt;&lt;div style=&quot;text-align: start; font-size: 11px;&quot;&gt;de usuário&lt;/div&gt;" style="rhombus;whiteSpace=wrap;html=1;fontSize=11;" parent="1" vertex="1">
          <mxGeometry x="25" y="511" width="112" height="80" as="geometry" />
        </mxCell>
        <mxCell id="2dEZNZgoz_LOyK3TEeMp-2" value="Credenciais não&amp;nbsp;&lt;div style=&quot;font-size: 11px;&quot;&gt;foram preenchidas da forma correta&amp;nbsp;&lt;/div&gt;" style="rounded=1;whiteSpace=wrap;html=1;fontSize=11;" parent="1" vertex="1">
          <mxGeometry x="-201" y="459" width="120" height="60" as="geometry" />
        </mxCell>
        <mxCell id="2dEZNZgoz_LOyK3TEeMp-3" style="edgeStyle=orthogonalEdgeStyle;rounded=0;orthogonalLoop=1;jettySize=auto;html=1;entryX=0.995;entryY=0.517;entryDx=0;entryDy=0;entryPerimeter=0;endArrow=open;endFill=0;" parent="1" source="2dEZNZgoz_LOyK3TEeMp-1" target="2dEZNZgoz_LOyK3TEeMp-2" edge="1">
          <mxGeometry relative="1" as="geometry" />
        </mxCell>
        <mxCell id="2dEZNZgoz_LOyK3TEeMp-4" value="[Credenciais incompletas]" style="text;html=1;align=center;verticalAlign=middle;resizable=0;points=[];autosize=1;strokeColor=none;fillColor=none;" parent="1" vertex="1">
          <mxGeometry x="-121" y="548" width="155" height="26" as="geometry" />
        </mxCell>
        <mxCell id="2dEZNZgoz_LOyK3TEeMp-6" value="&lt;div style=&quot;text-align: start; font-size: 11px;&quot;&gt;&amp;nbsp; &amp;nbsp; &amp;nbsp;Valida&amp;nbsp;&lt;/div&gt;&lt;div style=&quot;text-align: start; font-size: 11px;&quot;&gt;Credenciais&lt;/div&gt;" style="rhombus;whiteSpace=wrap;html=1;fontSize=11;" parent="1" vertex="1">
          <mxGeometry x="25" y="627" width="112" height="80" as="geometry" />
        </mxCell>
        <mxCell id="2dEZNZgoz_LOyK3TEeMp-8" value="[Credenciais completas]" style="text;html=1;align=center;verticalAlign=middle;resizable=0;points=[];autosize=1;strokeColor=none;fillColor=none;" parent="1" vertex="1">
          <mxGeometry x="80" y="592" width="146" height="26" as="geometry" />
        </mxCell>
        <mxCell id="2dEZNZgoz_LOyK3TEeMp-9" value="Insere Dados&lt;div&gt;de Login&lt;/div&gt;" style="rounded=1;whiteSpace=wrap;html=1;fontSize=15;" parent="1" vertex="1">
          <mxGeometry x="22" y="392" width="120" height="60" as="geometry" />
        </mxCell>
        <mxCell id="2dEZNZgoz_LOyK3TEeMp-11" value="Erro validar&amp;nbsp;&lt;div&gt;credenciais&lt;/div&gt;" style="rounded=1;whiteSpace=wrap;html=1;fontSize=15;" parent="1" vertex="1">
          <mxGeometry x="-264" y="636" width="120" height="60" as="geometry" />
        </mxCell>
        <mxCell id="2dEZNZgoz_LOyK3TEeMp-12" style="edgeStyle=orthogonalEdgeStyle;rounded=0;orthogonalLoop=1;jettySize=auto;html=1;entryX=1.011;entryY=0.506;entryDx=0;entryDy=0;entryPerimeter=0;endArrow=open;endFill=0;" parent="1" source="2dEZNZgoz_LOyK3TEeMp-6" target="2dEZNZgoz_LOyK3TEeMp-11" edge="1">
          <mxGeometry relative="1" as="geometry" />
        </mxCell>
        <mxCell id="2dEZNZgoz_LOyK3TEeMp-13" value="[Credenciais inválidas]" style="text;html=1;align=center;verticalAlign=middle;resizable=0;points=[];autosize=1;strokeColor=none;fillColor=none;" parent="1" vertex="1">
          <mxGeometry x="-121" y="644" width="138" height="26" as="geometry" />
        </mxCell>
        <mxCell id="2dEZNZgoz_LOyK3TEeMp-14" style="edgeStyle=orthogonalEdgeStyle;rounded=0;orthogonalLoop=1;jettySize=auto;html=1;entryX=0.262;entryY=0.781;entryDx=0;entryDy=0;entryPerimeter=0;endArrow=open;endFill=0;" parent="1" source="2dEZNZgoz_LOyK3TEeMp-11" target="2dEZNZgoz_LOyK3TEeMp-1" edge="1">
          <mxGeometry relative="1" as="geometry">
            <Array as="points">
              <mxPoint x="-204" y="604" />
              <mxPoint x="54" y="604" />
            </Array>
          </mxGeometry>
        </mxCell>
        <mxCell id="2dEZNZgoz_LOyK3TEeMp-15" value="Login efetuado" style="rounded=1;whiteSpace=wrap;html=1;fontSize=15;" parent="1" vertex="1">
          <mxGeometry x="20" y="731" width="120" height="39" as="geometry" />
        </mxCell>
        <mxCell id="2dEZNZgoz_LOyK3TEeMp-16" style="edgeStyle=orthogonalEdgeStyle;rounded=0;orthogonalLoop=1;jettySize=auto;html=1;entryX=0.509;entryY=0.01;entryDx=0;entryDy=0;entryPerimeter=0;endArrow=open;endFill=0;" parent="1" source="2dEZNZgoz_LOyK3TEeMp-6" target="2dEZNZgoz_LOyK3TEeMp-15" edge="1">
          <mxGeometry relative="1" as="geometry" />
        </mxCell>
        <mxCell id="2dEZNZgoz_LOyK3TEeMp-17" value="[Credenciais válidas]" style="text;html=1;align=center;verticalAlign=middle;resizable=0;points=[];autosize=1;strokeColor=none;fillColor=none;" parent="1" vertex="1">
          <mxGeometry x="97" y="698" width="129" height="26" as="geometry" />
        </mxCell>
        <mxCell id="2dEZNZgoz_LOyK3TEeMp-18" value="Registro de data e hora do login" style="rounded=1;whiteSpace=wrap;html=1;fontSize=15;" parent="1" vertex="1">
          <mxGeometry x="20" y="900" width="120" height="46" as="geometry" />
        </mxCell>
        <mxCell id="2dEZNZgoz_LOyK3TEeMp-20" value="&lt;div style=&quot;font-size: 11px;&quot;&gt;Tipo de ação&amp;nbsp;&lt;/div&gt;&lt;div style=&quot;font-size: 11px;&quot;&gt;e&amp;nbsp;&lt;span style=&quot;background-color: initial;&quot;&gt;ator&lt;/span&gt;&lt;/div&gt;" style="rhombus;whiteSpace=wrap;html=1;fontSize=11;align=center;" parent="1" vertex="1">
          <mxGeometry x="24" y="959" width="112" height="80" as="geometry" />
        </mxCell>
        <mxCell id="2dEZNZgoz_LOyK3TEeMp-21" style="edgeStyle=orthogonalEdgeStyle;rounded=0;orthogonalLoop=1;jettySize=auto;html=1;entryX=0.499;entryY=0.008;entryDx=0;entryDy=0;entryPerimeter=0;endArrow=open;endFill=0;" parent="1" source="2dEZNZgoz_LOyK3TEeMp-18" target="2dEZNZgoz_LOyK3TEeMp-20" edge="1">
          <mxGeometry relative="1" as="geometry">
            <mxPoint x="80" y="959" as="targetPoint" />
            <Array as="points">
              <mxPoint x="80" y="959" />
            </Array>
          </mxGeometry>
        </mxCell>
        <mxCell id="2dEZNZgoz_LOyK3TEeMp-22" value="Configuração de&amp;nbsp;&lt;div&gt;elevadores&lt;/div&gt;" style="rounded=1;whiteSpace=wrap;html=1;fontSize=15;" parent="1" vertex="1">
          <mxGeometry x="-470" y="967" width="120" height="60" as="geometry" />
        </mxCell>
        <mxCell id="2dEZNZgoz_LOyK3TEeMp-23" style="edgeStyle=orthogonalEdgeStyle;rounded=0;orthogonalLoop=1;jettySize=auto;html=1;entryX=0.995;entryY=0.533;entryDx=0;entryDy=0;entryPerimeter=0;endArrow=open;endFill=0;" parent="1" source="2dEZNZgoz_LOyK3TEeMp-20" target="2dEZNZgoz_LOyK3TEeMp-22" edge="1">
          <mxGeometry relative="1" as="geometry" />
        </mxCell>
        <mxCell id="2dEZNZgoz_LOyK3TEeMp-24" value="[Configurar quantidade de elevadores e&amp;nbsp;&lt;br&gt;Usuário é Admin ou&lt;span style=&quot;background-color: initial;&quot;&gt;&amp;nbsp;Master&lt;/span&gt;&lt;span style=&quot;background-color: initial;&quot;&gt;]&lt;/span&gt;" style="text;html=1;align=center;verticalAlign=middle;resizable=0;points=[];autosize=1;strokeColor=none;fillColor=none;" parent="1" vertex="1">
          <mxGeometry x="-272" y="956" width="232" height="41" as="geometry" />
        </mxCell>
        <mxCell id="2dEZNZgoz_LOyK3TEeMp-25" value="Exibe opções para definir o número de elevadores" style="rounded=1;whiteSpace=wrap;html=1;fontSize=13;" parent="1" vertex="1">
          <mxGeometry x="-470" y="1062" width="120" height="60" as="geometry" />
        </mxCell>
        <mxCell id="2dEZNZgoz_LOyK3TEeMp-26" style="edgeStyle=orthogonalEdgeStyle;rounded=0;orthogonalLoop=1;jettySize=auto;html=1;endArrow=open;endFill=0;entryX=0.502;entryY=0.006;entryDx=0;entryDy=0;entryPerimeter=0;" parent="1" source="2dEZNZgoz_LOyK3TEeMp-22" target="2dEZNZgoz_LOyK3TEeMp-25" edge="1">
          <mxGeometry relative="1" as="geometry">
            <mxPoint x="-410" y="1062" as="targetPoint" />
          </mxGeometry>
        </mxCell>
        <mxCell id="2dEZNZgoz_LOyK3TEeMp-27" value="Insere quantidade desejada&amp;nbsp;&lt;div&gt;de elevadores&lt;/div&gt;" style="rounded=1;whiteSpace=wrap;html=1;fontSize=13;" parent="1" vertex="1">
          <mxGeometry x="-471" y="1159" width="120" height="60" as="geometry" />
        </mxCell>
        <mxCell id="2dEZNZgoz_LOyK3TEeMp-28" style="edgeStyle=orthogonalEdgeStyle;rounded=0;orthogonalLoop=1;jettySize=auto;html=1;entryX=0.507;entryY=0.017;entryDx=0;entryDy=0;entryPerimeter=0;endArrow=open;endFill=0;" parent="1" source="2dEZNZgoz_LOyK3TEeMp-25" target="2dEZNZgoz_LOyK3TEeMp-27" edge="1">
          <mxGeometry relative="1" as="geometry" />
        </mxCell>
        <mxCell id="2dEZNZgoz_LOyK3TEeMp-29" value="&lt;div style=&quot;text-align: start; font-size: 11px;&quot;&gt;Valor inserido&lt;/div&gt;" style="rhombus;whiteSpace=wrap;html=1;fontSize=11;" parent="1" vertex="1">
          <mxGeometry x="-466" y="1268" width="112" height="80" as="geometry" />
        </mxCell>
        <mxCell id="2dEZNZgoz_LOyK3TEeMp-30" style="edgeStyle=orthogonalEdgeStyle;rounded=0;orthogonalLoop=1;jettySize=auto;html=1;entryX=0.499;entryY=0.018;entryDx=0;entryDy=0;entryPerimeter=0;endArrow=open;endFill=0;" parent="1" source="2dEZNZgoz_LOyK3TEeMp-27" target="2dEZNZgoz_LOyK3TEeMp-29" edge="1">
          <mxGeometry relative="1" as="geometry" />
        </mxCell>
        <mxCell id="2dEZNZgoz_LOyK3TEeMp-31" value="Erro na quantidade&lt;div&gt;desejada de elevadores&lt;/div&gt;" style="rounded=1;whiteSpace=wrap;html=1;fontSize=13;" parent="1" vertex="1">
          <mxGeometry x="-688" y="1281" width="120" height="60" as="geometry" />
        </mxCell>
        <mxCell id="2dEZNZgoz_LOyK3TEeMp-32" style="edgeStyle=orthogonalEdgeStyle;rounded=0;orthogonalLoop=1;jettySize=auto;html=1;entryX=1.003;entryY=0.45;entryDx=0;entryDy=0;entryPerimeter=0;endArrow=open;endFill=0;" parent="1" source="2dEZNZgoz_LOyK3TEeMp-29" target="2dEZNZgoz_LOyK3TEeMp-31" edge="1">
          <mxGeometry relative="1" as="geometry" />
        </mxCell>
        <mxCell id="2dEZNZgoz_LOyK3TEeMp-33" value="[Valor inválido]" style="text;html=1;align=center;verticalAlign=middle;resizable=0;points=[];autosize=1;strokeColor=none;fillColor=none;" parent="1" vertex="1">
          <mxGeometry x="-561" y="1285" width="96" height="26" as="geometry" />
        </mxCell>
        <mxCell id="2dEZNZgoz_LOyK3TEeMp-37" style="edgeStyle=orthogonalEdgeStyle;rounded=0;orthogonalLoop=1;jettySize=auto;html=1;endArrow=open;endFill=0;entryX=0.494;entryY=0;entryDx=0;entryDy=0;entryPerimeter=0;" parent="1" source="2dEZNZgoz_LOyK3TEeMp-29" target="2dEZNZgoz_LOyK3TEeMp-41" edge="1">
          <mxGeometry relative="1" as="geometry">
            <mxPoint x="-409.664" y="1403.6399999999999" as="targetPoint" />
          </mxGeometry>
        </mxCell>
        <mxCell id="2dEZNZgoz_LOyK3TEeMp-38" value="[Valor válido]" style="text;html=1;align=center;verticalAlign=middle;resizable=0;points=[];autosize=1;strokeColor=none;fillColor=none;" parent="1" vertex="1">
          <mxGeometry x="-414" y="1357" width="86" height="26" as="geometry" />
        </mxCell>
        <mxCell id="2dEZNZgoz_LOyK3TEeMp-41" value="Configuração salva e mudança aplicada" style="rounded=1;whiteSpace=wrap;html=1;fontSize=13;" parent="1" vertex="1">
          <mxGeometry x="-469" y="1529" width="120" height="60" as="geometry" />
        </mxCell>
        <mxCell id="2dEZNZgoz_LOyK3TEeMp-48" value="" style="endArrow=none;html=1;rounded=0;entryX=0.516;entryY=1.015;entryDx=0;entryDy=0;entryPerimeter=0;exitX=0.503;exitY=0;exitDx=0;exitDy=0;exitPerimeter=0;" parent="1" target="2dEZNZgoz_LOyK3TEeMp-41" edge="1" source="GOKQv8CPCW2Fxh-G2tMz-73">
          <mxGeometry width="50" height="50" relative="1" as="geometry">
            <mxPoint x="-402" y="1977" as="sourcePoint" />
            <mxPoint x="-394" y="1636" as="targetPoint" />
            <Array as="points">
              <mxPoint x="181" y="1977" />
              <mxPoint x="-407" y="1973" />
            </Array>
          </mxGeometry>
        </mxCell>
        <mxCell id="2dEZNZgoz_LOyK3TEeMp-49" value="Configuração de&amp;nbsp;&lt;div style=&quot;font-size: 13px;&quot;&gt;elevadores&lt;/div&gt;" style="rounded=1;whiteSpace=wrap;html=1;fontSize=13;" parent="1" vertex="1">
          <mxGeometry x="23" y="1098" width="120" height="60" as="geometry" />
        </mxCell>
        <mxCell id="2dEZNZgoz_LOyK3TEeMp-50" style="edgeStyle=orthogonalEdgeStyle;rounded=0;orthogonalLoop=1;jettySize=auto;html=1;entryX=0.476;entryY=0.004;entryDx=0;entryDy=0;entryPerimeter=0;endArrow=open;endFill=0;" parent="1" source="2dEZNZgoz_LOyK3TEeMp-20" target="2dEZNZgoz_LOyK3TEeMp-49" edge="1">
          <mxGeometry relative="1" as="geometry" />
        </mxCell>
        <mxCell id="2dEZNZgoz_LOyK3TEeMp-51" value="[Configurar distribuição&amp;nbsp;&lt;div&gt;de elevadores&amp;nbsp;&lt;span style=&quot;background-color: initial;&quot;&gt;e&amp;nbsp;&lt;/span&gt;&lt;/div&gt;&lt;div&gt;&lt;span style=&quot;background-color: initial;&quot;&gt;Usuário é Admin ou&lt;/span&gt;&lt;span style=&quot;background-color: initial;&quot;&gt;&amp;nbsp;Master&lt;/span&gt;]&lt;/div&gt;" style="text;html=1;align=center;verticalAlign=middle;resizable=0;points=[];autosize=1;strokeColor=none;fillColor=none;" parent="1" vertex="1">
          <mxGeometry x="-95" y="1026" width="166" height="55" as="geometry" />
        </mxCell>
        <mxCell id="2dEZNZgoz_LOyK3TEeMp-52" value="Exibe opções para definir a quantidade de elevadores e distruibuição por andares" style="rounded=1;whiteSpace=wrap;html=1;fontSize=10;" parent="1" vertex="1">
          <mxGeometry x="23" y="1188" width="120" height="60" as="geometry" />
        </mxCell>
        <mxCell id="2dEZNZgoz_LOyK3TEeMp-53" style="edgeStyle=orthogonalEdgeStyle;rounded=0;orthogonalLoop=1;jettySize=auto;html=1;entryX=0.494;entryY=0.021;entryDx=0;entryDy=0;entryPerimeter=0;endArrow=open;endFill=0;" parent="1" source="2dEZNZgoz_LOyK3TEeMp-49" target="2dEZNZgoz_LOyK3TEeMp-52" edge="1">
          <mxGeometry relative="1" as="geometry" />
        </mxCell>
        <mxCell id="2dEZNZgoz_LOyK3TEeMp-54" value="&lt;div&gt;Insere combinações de elevador/andar&lt;/div&gt;desejadas" style="rounded=1;whiteSpace=wrap;html=1;fontSize=10;" parent="1" vertex="1">
          <mxGeometry x="22" y="1284" width="120" height="60" as="geometry" />
        </mxCell>
        <mxCell id="2dEZNZgoz_LOyK3TEeMp-55" style="edgeStyle=orthogonalEdgeStyle;rounded=0;orthogonalLoop=1;jettySize=auto;html=1;endArrow=open;endFill=0;" parent="1" source="2dEZNZgoz_LOyK3TEeMp-52" edge="1">
          <mxGeometry relative="1" as="geometry">
            <mxPoint x="83" y="1284" as="targetPoint" />
          </mxGeometry>
        </mxCell>
        <mxCell id="2dEZNZgoz_LOyK3TEeMp-57" value="&lt;div style=&quot;font-size: 11px;&quot;&gt;&amp;nbsp;&lt;span style=&quot;background-color: initial;&quot;&gt;Configurações&lt;/span&gt;&lt;/div&gt;&lt;div style=&quot;font-size: 11px;&quot;&gt;&lt;span style=&quot;background-color: initial;&quot;&gt;inseridas&lt;/span&gt;&lt;/div&gt;" style="rhombus;whiteSpace=wrap;html=1;fontSize=11;align=center;" parent="1" vertex="1">
          <mxGeometry x="26" y="1402" width="112" height="80" as="geometry" />
        </mxCell>
        <mxCell id="2dEZNZgoz_LOyK3TEeMp-58" style="edgeStyle=orthogonalEdgeStyle;rounded=0;orthogonalLoop=1;jettySize=auto;html=1;entryX=0.504;entryY=0.007;entryDx=0;entryDy=0;entryPerimeter=0;endArrow=open;endFill=0;" parent="1" source="2dEZNZgoz_LOyK3TEeMp-54" target="2dEZNZgoz_LOyK3TEeMp-57" edge="1">
          <mxGeometry relative="1" as="geometry" />
        </mxCell>
        <mxCell id="2dEZNZgoz_LOyK3TEeMp-59" value="Erro nas configurações&lt;div&gt;inseridas&amp;nbsp;&lt;/div&gt;" style="rounded=1;whiteSpace=wrap;html=1;fontSize=10;" parent="1" vertex="1">
          <mxGeometry x="-200" y="1413" width="120" height="60" as="geometry" />
        </mxCell>
        <mxCell id="2dEZNZgoz_LOyK3TEeMp-60" style="edgeStyle=orthogonalEdgeStyle;rounded=0;orthogonalLoop=1;jettySize=auto;html=1;entryX=0.988;entryY=0.497;entryDx=0;entryDy=0;entryPerimeter=0;endArrow=open;endFill=0;" parent="1" source="2dEZNZgoz_LOyK3TEeMp-57" target="2dEZNZgoz_LOyK3TEeMp-59" edge="1">
          <mxGeometry relative="1" as="geometry" />
        </mxCell>
        <mxCell id="2dEZNZgoz_LOyK3TEeMp-61" value="[Configurações&lt;div&gt;inconsistentes]&lt;/div&gt;" style="text;html=1;align=center;verticalAlign=middle;resizable=0;points=[];autosize=1;strokeColor=none;fillColor=none;" parent="1" vertex="1">
          <mxGeometry x="-74" y="1404" width="99" height="41" as="geometry" />
        </mxCell>
        <mxCell id="2dEZNZgoz_LOyK3TEeMp-62" style="edgeStyle=orthogonalEdgeStyle;rounded=0;orthogonalLoop=1;jettySize=auto;html=1;entryX=-0.005;entryY=0.471;entryDx=0;entryDy=0;entryPerimeter=0;endArrow=open;endFill=0;" parent="1" source="2dEZNZgoz_LOyK3TEeMp-59" target="2dEZNZgoz_LOyK3TEeMp-52" edge="1">
          <mxGeometry relative="1" as="geometry">
            <Array as="points">
              <mxPoint x="-143" y="1216" />
            </Array>
          </mxGeometry>
        </mxCell>
        <mxCell id="2dEZNZgoz_LOyK3TEeMp-63" style="edgeStyle=orthogonalEdgeStyle;rounded=0;orthogonalLoop=1;jettySize=auto;html=1;endArrow=open;endFill=0;entryX=0;entryY=0.515;entryDx=0;entryDy=0;entryPerimeter=0;" parent="1" source="2dEZNZgoz_LOyK3TEeMp-31" target="2dEZNZgoz_LOyK3TEeMp-25" edge="1">
          <mxGeometry relative="1" as="geometry">
            <mxPoint x="-471" y="1093" as="targetPoint" />
            <Array as="points">
              <mxPoint x="-629" y="1093" />
            </Array>
          </mxGeometry>
        </mxCell>
        <mxCell id="2dEZNZgoz_LOyK3TEeMp-65" style="edgeStyle=orthogonalEdgeStyle;rounded=0;orthogonalLoop=1;jettySize=auto;html=1;entryX=0.492;entryY=-0.016;entryDx=0;entryDy=0;entryPerimeter=0;endArrow=open;endFill=0;" parent="1" source="2dEZNZgoz_LOyK3TEeMp-57" target="2dEZNZgoz_LOyK3TEeMp-70" edge="1">
          <mxGeometry relative="1" as="geometry">
            <mxPoint x="82.77599999999984" y="1530.8400000000001" as="targetPoint" />
          </mxGeometry>
        </mxCell>
        <mxCell id="2dEZNZgoz_LOyK3TEeMp-70" value="Configurações salvas e mudanças aplicadas" style="rounded=1;whiteSpace=wrap;html=1;fontSize=10;" parent="1" vertex="1">
          <mxGeometry x="23" y="1672" width="120" height="60" as="geometry" />
        </mxCell>
        <mxCell id="2dEZNZgoz_LOyK3TEeMp-73" value="" style="endArrow=none;html=1;rounded=0;entryX=0.5;entryY=1;entryDx=0;entryDy=0;entryPerimeter=0;" parent="1" target="2dEZNZgoz_LOyK3TEeMp-70" edge="1">
          <mxGeometry width="50" height="50" relative="1" as="geometry">
            <mxPoint x="83" y="1977" as="sourcePoint" />
            <mxPoint x="89" y="1742" as="targetPoint" />
          </mxGeometry>
        </mxCell>
        <mxCell id="K0kKmlpVppl7YNi_9mcc-3" value="Configuração de&amp;nbsp;&lt;div&gt;elevadores&lt;/div&gt;" style="rounded=1;whiteSpace=wrap;html=1;fontSize=15;" parent="1" vertex="1">
          <mxGeometry x="379" y="970" width="120" height="60" as="geometry" />
        </mxCell>
        <mxCell id="K0kKmlpVppl7YNi_9mcc-4" style="edgeStyle=orthogonalEdgeStyle;rounded=0;orthogonalLoop=1;jettySize=auto;html=1;entryX=-0.001;entryY=0.492;entryDx=0;entryDy=0;entryPerimeter=0;endArrow=open;endFill=0;" parent="1" source="2dEZNZgoz_LOyK3TEeMp-20" target="K0kKmlpVppl7YNi_9mcc-3" edge="1">
          <mxGeometry relative="1" as="geometry" />
        </mxCell>
        <mxCell id="K0kKmlpVppl7YNi_9mcc-5" value="[Configurar lista de&amp;nbsp;&lt;span style=&quot;background-color: initial;&quot;&gt;acesso a andar VIP&lt;/span&gt;&lt;div&gt;&lt;span style=&quot;background-color: initial;&quot;&gt;e&amp;nbsp;&lt;/span&gt;&lt;span style=&quot;background-color: initial;&quot;&gt;Usuário é d&lt;/span&gt;&lt;span style=&quot;background-color: initial;&quot;&gt;ono de andar&lt;/span&gt;&lt;span style=&quot;background-color: initial;&quot;&gt;]&lt;/span&gt;&lt;/div&gt;" style="text;html=1;align=center;verticalAlign=middle;resizable=0;points=[];autosize=1;strokeColor=none;fillColor=none;" parent="1" vertex="1">
          <mxGeometry x="138" y="962" width="227" height="41" as="geometry" />
        </mxCell>
        <mxCell id="K0kKmlpVppl7YNi_9mcc-6" value="Configuração da lista de acesso" style="rounded=1;whiteSpace=wrap;html=1;fontSize=13;" parent="1" vertex="1">
          <mxGeometry x="377" y="1062" width="120" height="60" as="geometry" />
        </mxCell>
        <mxCell id="K0kKmlpVppl7YNi_9mcc-7" style="edgeStyle=orthogonalEdgeStyle;rounded=0;orthogonalLoop=1;jettySize=auto;html=1;entryX=0.519;entryY=-0.006;entryDx=0;entryDy=0;entryPerimeter=0;endArrow=open;endFill=0;" parent="1" source="K0kKmlpVppl7YNi_9mcc-3" target="K0kKmlpVppl7YNi_9mcc-6" edge="1">
          <mxGeometry relative="1" as="geometry">
            <mxPoint x="446" y="1092" as="targetPoint" />
          </mxGeometry>
        </mxCell>
        <mxCell id="K0kKmlpVppl7YNi_9mcc-8" value="Exibe a lista de usuários da lista de acesso" style="rounded=1;whiteSpace=wrap;html=1;fontSize=10;" parent="1" vertex="1">
          <mxGeometry x="379" y="1151" width="120" height="60" as="geometry" />
        </mxCell>
        <mxCell id="K0kKmlpVppl7YNi_9mcc-9" style="edgeStyle=orthogonalEdgeStyle;rounded=0;orthogonalLoop=1;jettySize=auto;html=1;entryX=0.481;entryY=0.023;entryDx=0;entryDy=0;entryPerimeter=0;endArrow=open;endFill=0;" parent="1" source="K0kKmlpVppl7YNi_9mcc-6" target="K0kKmlpVppl7YNi_9mcc-8" edge="1">
          <mxGeometry relative="1" as="geometry" />
        </mxCell>
        <mxCell id="K0kKmlpVppl7YNi_9mcc-11" style="edgeStyle=orthogonalEdgeStyle;rounded=0;orthogonalLoop=1;jettySize=auto;html=1;entryX=0.497;entryY=0.022;entryDx=0;entryDy=0;entryPerimeter=0;endArrow=open;endFill=0;" parent="1" source="K0kKmlpVppl7YNi_9mcc-8" edge="1">
          <mxGeometry relative="1" as="geometry">
            <mxPoint x="438.63999999999965" y="1243.3200000000002" as="targetPoint" />
          </mxGeometry>
        </mxCell>
        <mxCell id="K0kKmlpVppl7YNi_9mcc-12" value="&lt;div style=&quot;&quot;&gt;&lt;span style=&quot;font-size: 10px;&quot;&gt;Adição/Remoção&lt;/span&gt;&lt;/div&gt;" style="rhombus;whiteSpace=wrap;html=1;fontSize=11;align=center;" parent="1" vertex="1">
          <mxGeometry x="383" y="1243" width="112" height="80" as="geometry" />
        </mxCell>
        <mxCell id="K0kKmlpVppl7YNi_9mcc-22" value="&lt;div style=&quot;&quot;&gt;&lt;span style=&quot;font-size: 10px;&quot;&gt;Valida mudança&lt;/span&gt;&lt;/div&gt;" style="rhombus;whiteSpace=wrap;html=1;fontSize=11;align=center;" parent="1" vertex="1">
          <mxGeometry x="388" y="1600" width="112" height="80" as="geometry" />
        </mxCell>
        <mxCell id="K0kKmlpVppl7YNi_9mcc-24" value="Erro ao validar mudanças na lista de acesso" style="rounded=1;whiteSpace=wrap;html=1;fontSize=10;" parent="1" vertex="1">
          <mxGeometry x="167" y="1612" width="120" height="60" as="geometry" />
        </mxCell>
        <mxCell id="K0kKmlpVppl7YNi_9mcc-25" style="edgeStyle=orthogonalEdgeStyle;rounded=0;orthogonalLoop=1;jettySize=auto;html=1;entryX=1.001;entryY=0.48;entryDx=0;entryDy=0;entryPerimeter=0;endArrow=open;endFill=0;" parent="1" source="K0kKmlpVppl7YNi_9mcc-22" target="K0kKmlpVppl7YNi_9mcc-24" edge="1">
          <mxGeometry relative="1" as="geometry" />
        </mxCell>
        <mxCell id="K0kKmlpVppl7YNi_9mcc-26" value="[Validadação falhou]" style="text;html=1;align=center;verticalAlign=middle;resizable=0;points=[];autosize=1;strokeColor=none;fillColor=none;fontSize=11;" parent="1" vertex="1">
          <mxGeometry x="285" y="1609" width="117" height="25" as="geometry" />
        </mxCell>
        <mxCell id="K0kKmlpVppl7YNi_9mcc-27" value="" style="endArrow=none;html=1;rounded=0;entryX=0.499;entryY=1.017;entryDx=0;entryDy=0;entryPerimeter=0;" parent="1" target="K0kKmlpVppl7YNi_9mcc-24" edge="1">
          <mxGeometry width="50" height="50" relative="1" as="geometry">
            <mxPoint x="181" y="1977" as="sourcePoint" />
            <mxPoint x="234" y="1676" as="targetPoint" />
            <Array as="points">
              <mxPoint x="228" y="1977" />
            </Array>
          </mxGeometry>
        </mxCell>
        <mxCell id="K0kKmlpVppl7YNi_9mcc-28" value="Alteração na lista de acesso VIP salva" style="rounded=1;whiteSpace=wrap;html=1;fontSize=10;" parent="1" vertex="1">
          <mxGeometry x="388" y="1721" width="120" height="60" as="geometry" />
        </mxCell>
        <mxCell id="K0kKmlpVppl7YNi_9mcc-29" style="edgeStyle=orthogonalEdgeStyle;rounded=0;orthogonalLoop=1;jettySize=auto;html=1;entryX=0.469;entryY=-0.006;entryDx=0;entryDy=0;entryPerimeter=0;endArrow=open;endFill=0;" parent="1" source="K0kKmlpVppl7YNi_9mcc-22" target="K0kKmlpVppl7YNi_9mcc-28" edge="1">
          <mxGeometry relative="1" as="geometry" />
        </mxCell>
        <mxCell id="K0kKmlpVppl7YNi_9mcc-30" value="" style="endArrow=none;html=1;rounded=0;entryX=0.511;entryY=0.989;entryDx=0;entryDy=0;entryPerimeter=0;" parent="1" target="K0kKmlpVppl7YNi_9mcc-28" edge="1">
          <mxGeometry width="50" height="50" relative="1" as="geometry">
            <mxPoint x="228" y="1977" as="sourcePoint" />
            <mxPoint x="410" y="1888" as="targetPoint" />
            <Array as="points">
              <mxPoint x="449" y="1978" />
            </Array>
          </mxGeometry>
        </mxCell>
        <mxCell id="K0kKmlpVppl7YNi_9mcc-32" style="edgeStyle=orthogonalEdgeStyle;rounded=0;orthogonalLoop=1;jettySize=auto;html=1;endArrow=open;endFill=0;entryX=0.501;entryY=-0.002;entryDx=0;entryDy=0;entryPerimeter=0;" parent="1" source="GOKQv8CPCW2Fxh-G2tMz-45" target="K0kKmlpVppl7YNi_9mcc-33" edge="1">
          <mxGeometry relative="1" as="geometry">
            <mxPoint x="850" y="328" as="targetPoint" />
          </mxGeometry>
        </mxCell>
        <mxCell id="K0kKmlpVppl7YNi_9mcc-36" style="edgeStyle=orthogonalEdgeStyle;rounded=0;orthogonalLoop=1;jettySize=auto;html=1;entryX=0.479;entryY=-0.008;entryDx=0;entryDy=0;entryPerimeter=0;endArrow=open;endFill=0;" parent="1" source="K0kKmlpVppl7YNi_9mcc-33" target="K0kKmlpVppl7YNi_9mcc-35" edge="1">
          <mxGeometry relative="1" as="geometry">
            <mxPoint x="649.521739130435" y="409.913043478261" as="targetPoint" />
          </mxGeometry>
        </mxCell>
        <mxCell id="K0kKmlpVppl7YNi_9mcc-33" value="&lt;div style=&quot;font-size: 11px;&quot;&gt;Tipo de&amp;nbsp;&lt;/div&gt;&lt;div style=&quot;font-size: 11px;&quot;&gt;Procedimento e&amp;nbsp;&lt;/div&gt;&lt;div style=&quot;font-size: 11px;&quot;&gt;ator&lt;/div&gt;" style="rhombus;whiteSpace=wrap;html=1;fontSize=11;align=center;" parent="1" vertex="1">
          <mxGeometry x="818" y="329" width="112" height="80" as="geometry" />
        </mxCell>
        <mxCell id="K0kKmlpVppl7YNi_9mcc-35" value="Emergência detectada" style="rounded=1;whiteSpace=wrap;html=1;fontSize=15;" parent="1" vertex="1">
          <mxGeometry x="544" y="409" width="120" height="60" as="geometry" />
        </mxCell>
        <mxCell id="K0kKmlpVppl7YNi_9mcc-37" value="[Emergência geral e&lt;br&gt;&lt;div&gt;&lt;span style=&quot;background-color: initial;&quot;&gt;Alarme de Emergência&lt;/span&gt;]&lt;/div&gt;" style="text;html=1;align=center;verticalAlign=middle;resizable=0;points=[];autosize=1;strokeColor=none;fillColor=none;" parent="1" vertex="1">
          <mxGeometry x="624" y="327" width="143" height="41" as="geometry" />
        </mxCell>
        <mxCell id="K0kKmlpVppl7YNi_9mcc-38" value="Elevadores em modo de emegência geral ativado" style="rounded=1;whiteSpace=wrap;html=1;fontSize=12;" parent="1" vertex="1">
          <mxGeometry x="543" y="528" width="120" height="60" as="geometry" />
        </mxCell>
        <mxCell id="K0kKmlpVppl7YNi_9mcc-39" style="edgeStyle=orthogonalEdgeStyle;rounded=0;orthogonalLoop=1;jettySize=auto;html=1;endArrow=open;endFill=0;entryX=0.51;entryY=-0.002;entryDx=0;entryDy=0;entryPerimeter=0;" parent="1" source="K0kKmlpVppl7YNi_9mcc-35" target="K0kKmlpVppl7YNi_9mcc-38" edge="1">
          <mxGeometry relative="1" as="geometry">
            <mxPoint x="655" y="515" as="targetPoint" />
          </mxGeometry>
        </mxCell>
        <mxCell id="K0kKmlpVppl7YNi_9mcc-40" value="" style="endArrow=none;html=1;rounded=0;entryX=0.497;entryY=1.001;entryDx=0;entryDy=0;entryPerimeter=0;" parent="1" edge="1" target="ggT2yQSoRFMAll5U3xAD-34">
          <mxGeometry width="50" height="50" relative="1" as="geometry">
            <mxPoint x="449" y="1978" as="sourcePoint" />
            <mxPoint x="610" y="1184" as="targetPoint" />
            <Array as="points">
              <mxPoint x="610" y="1978" />
            </Array>
          </mxGeometry>
        </mxCell>
        <mxCell id="K0kKmlpVppl7YNi_9mcc-41" value="Incêndio detectado" style="rounded=1;whiteSpace=wrap;html=1;fontSize=15;" parent="1" vertex="1">
          <mxGeometry x="1136" y="336" width="120" height="60" as="geometry" />
        </mxCell>
        <mxCell id="K0kKmlpVppl7YNi_9mcc-42" style="edgeStyle=orthogonalEdgeStyle;rounded=0;orthogonalLoop=1;jettySize=auto;html=1;entryX=0.014;entryY=0.535;entryDx=0;entryDy=0;entryPerimeter=0;endArrow=open;endFill=0;" parent="1" source="K0kKmlpVppl7YNi_9mcc-33" target="K0kKmlpVppl7YNi_9mcc-41" edge="1">
          <mxGeometry relative="1" as="geometry" />
        </mxCell>
        <mxCell id="K0kKmlpVppl7YNi_9mcc-43" value="[Caso de Incêndio e&amp;nbsp;&lt;br&gt;&lt;div&gt;&lt;span style=&quot;background-color: initial;&quot;&gt;Alarme de Incêndio&lt;/span&gt;]&lt;/div&gt;" style="text;html=1;align=center;verticalAlign=middle;resizable=0;points=[];autosize=1;strokeColor=none;fillColor=none;" parent="1" vertex="1">
          <mxGeometry x="956" y="328" width="128" height="41" as="geometry" />
        </mxCell>
        <mxCell id="K0kKmlpVppl7YNi_9mcc-44" value="Elevadores em modo&amp;nbsp; emegência em caso de incêndio ativado" style="rounded=1;whiteSpace=wrap;html=1;fontSize=11;" parent="1" vertex="1">
          <mxGeometry x="1134" y="463" width="120" height="60" as="geometry" />
        </mxCell>
        <mxCell id="K0kKmlpVppl7YNi_9mcc-45" style="edgeStyle=orthogonalEdgeStyle;rounded=0;orthogonalLoop=1;jettySize=auto;html=1;entryX=0.52;entryY=0;entryDx=0;entryDy=0;entryPerimeter=0;endArrow=open;endFill=0;" parent="1" source="K0kKmlpVppl7YNi_9mcc-41" target="K0kKmlpVppl7YNi_9mcc-44" edge="1">
          <mxGeometry relative="1" as="geometry" />
        </mxCell>
        <mxCell id="K0kKmlpVppl7YNi_9mcc-46" value="Carga máxima permitida atingida" style="rounded=1;whiteSpace=wrap;html=1;fontSize=15;" parent="1" vertex="1">
          <mxGeometry x="813" y="453" width="120" height="60" as="geometry" />
        </mxCell>
        <mxCell id="K0kKmlpVppl7YNi_9mcc-47" style="edgeStyle=orthogonalEdgeStyle;rounded=0;orthogonalLoop=1;jettySize=auto;html=1;entryX=0.513;entryY=0.024;entryDx=0;entryDy=0;entryPerimeter=0;endArrow=open;endFill=0;" parent="1" source="K0kKmlpVppl7YNi_9mcc-33" target="K0kKmlpVppl7YNi_9mcc-46" edge="1">
          <mxGeometry relative="1" as="geometry" />
        </mxCell>
        <mxCell id="K0kKmlpVppl7YNi_9mcc-48" value="[Exesso de carga máxima&lt;div&gt;&lt;span style=&quot;background-color: initial;&quot;&gt;e Balança]&lt;/span&gt;&lt;/div&gt;" style="text;html=1;align=center;verticalAlign=middle;resizable=0;points=[];autosize=1;strokeColor=none;fillColor=none;" parent="1" vertex="1">
          <mxGeometry x="868" y="405" width="156" height="41" as="geometry" />
        </mxCell>
        <mxCell id="K0kKmlpVppl7YNi_9mcc-49" value="Operação do elevador interrompida" style="rounded=1;whiteSpace=wrap;html=1;fontSize=11;" parent="1" vertex="1">
          <mxGeometry x="813" y="706" width="120" height="60" as="geometry" />
        </mxCell>
        <mxCell id="K0kKmlpVppl7YNi_9mcc-50" style="edgeStyle=orthogonalEdgeStyle;rounded=0;orthogonalLoop=1;jettySize=auto;html=1;entryX=0.503;entryY=0.015;entryDx=0;entryDy=0;entryPerimeter=0;endArrow=open;endFill=0;" parent="1" source="K0kKmlpVppl7YNi_9mcc-46" target="ggT2yQSoRFMAll5U3xAD-21" edge="1">
          <mxGeometry relative="1" as="geometry" />
        </mxCell>
        <mxCell id="K0kKmlpVppl7YNi_9mcc-51" value="" style="endArrow=none;html=1;rounded=0;entryX=0.508;entryY=0.997;entryDx=0;entryDy=0;entryPerimeter=0;" parent="1" target="K0kKmlpVppl7YNi_9mcc-49" edge="1">
          <mxGeometry width="50" height="50" relative="1" as="geometry">
            <mxPoint x="610" y="1978" as="sourcePoint" />
            <mxPoint x="928" y="881" as="targetPoint" />
            <Array as="points">
              <mxPoint x="886" y="1978" />
            </Array>
          </mxGeometry>
        </mxCell>
        <mxCell id="ggT2yQSoRFMAll5U3xAD-1" style="edgeStyle=none;curved=1;rounded=0;orthogonalLoop=1;jettySize=auto;html=1;entryX=0.5;entryY=-0.007;entryDx=0;entryDy=0;entryPerimeter=0;fontSize=12;startSize=8;endSize=8;" edge="1" parent="1" source="2dEZNZgoz_LOyK3TEeMp-1" target="2dEZNZgoz_LOyK3TEeMp-6">
          <mxGeometry relative="1" as="geometry" />
        </mxCell>
        <mxCell id="ggT2yQSoRFMAll5U3xAD-2" style="edgeStyle=none;curved=1;rounded=0;orthogonalLoop=1;jettySize=auto;html=1;entryX=0.51;entryY=0.014;entryDx=0;entryDy=0;entryPerimeter=0;fontSize=12;startSize=8;endSize=8;" edge="1" parent="1" source="2dEZNZgoz_LOyK3TEeMp-9" target="2dEZNZgoz_LOyK3TEeMp-1">
          <mxGeometry relative="1" as="geometry" />
        </mxCell>
        <mxCell id="ggT2yQSoRFMAll5U3xAD-3" style="edgeStyle=none;curved=1;rounded=0;orthogonalLoop=1;jettySize=auto;html=1;entryX=-0.004;entryY=0.45;entryDx=0;entryDy=0;entryPerimeter=0;fontSize=12;startSize=8;endSize=8;" edge="1" parent="1" source="2dEZNZgoz_LOyK3TEeMp-2" target="2dEZNZgoz_LOyK3TEeMp-9">
          <mxGeometry relative="1" as="geometry">
            <Array as="points">
              <mxPoint x="-111" y="417" />
            </Array>
          </mxGeometry>
        </mxCell>
        <mxCell id="ggT2yQSoRFMAll5U3xAD-5" value="Exibe data e hora&lt;div&gt;do último login&lt;/div&gt;" style="rounded=1;whiteSpace=wrap;html=1;fontSize=15;" vertex="1" parent="1">
          <mxGeometry x="18" y="817" width="120" height="42" as="geometry" />
        </mxCell>
        <mxCell id="ggT2yQSoRFMAll5U3xAD-6" style="edgeStyle=none;curved=1;rounded=0;orthogonalLoop=1;jettySize=auto;html=1;entryX=0.516;entryY=-0.018;entryDx=0;entryDy=0;entryPerimeter=0;fontSize=12;startSize=8;endSize=8;endArrow=open;endFill=0;" edge="1" parent="1" source="2dEZNZgoz_LOyK3TEeMp-15" target="ggT2yQSoRFMAll5U3xAD-5">
          <mxGeometry relative="1" as="geometry" />
        </mxCell>
        <mxCell id="ggT2yQSoRFMAll5U3xAD-7" style="edgeStyle=none;curved=1;rounded=0;orthogonalLoop=1;jettySize=auto;html=1;entryX=0.483;entryY=-0.007;entryDx=0;entryDy=0;entryPerimeter=0;fontSize=12;startSize=8;endSize=8;endArrow=open;endFill=0;" edge="1" parent="1" source="ggT2yQSoRFMAll5U3xAD-5" target="2dEZNZgoz_LOyK3TEeMp-18">
          <mxGeometry relative="1" as="geometry" />
        </mxCell>
        <mxCell id="ggT2yQSoRFMAll5U3xAD-8" value="Seleciona novo usuário" style="rounded=1;whiteSpace=wrap;html=1;fontSize=10;" vertex="1" parent="1">
          <mxGeometry x="456" y="1362" width="120" height="60" as="geometry" />
        </mxCell>
        <mxCell id="ggT2yQSoRFMAll5U3xAD-9" value="Insere na lista de acesso" style="rounded=1;whiteSpace=wrap;html=1;fontSize=10;" vertex="1" parent="1">
          <mxGeometry x="455" y="1457" width="120" height="60" as="geometry" />
        </mxCell>
        <mxCell id="ggT2yQSoRFMAll5U3xAD-10" value="Seleciona usuário na lista&lt;div&gt;de acesso&lt;/div&gt;" style="rounded=1;whiteSpace=wrap;html=1;fontSize=10;" vertex="1" parent="1">
          <mxGeometry x="291" y="1360" width="120" height="60" as="geometry" />
        </mxCell>
        <mxCell id="ggT2yQSoRFMAll5U3xAD-11" value="Remove usuário da lista de acesso" style="rounded=1;whiteSpace=wrap;html=1;fontSize=10;" vertex="1" parent="1">
          <mxGeometry x="290" y="1454" width="120" height="60" as="geometry" />
        </mxCell>
        <mxCell id="ggT2yQSoRFMAll5U3xAD-12" style="edgeStyle=none;curved=0;rounded=1;orthogonalLoop=1;jettySize=auto;html=1;entryX=0.478;entryY=-0.021;entryDx=0;entryDy=0;entryPerimeter=0;fontSize=12;startSize=8;endSize=8;exitX=-0.01;exitY=0.511;exitDx=0;exitDy=0;exitPerimeter=0;endArrow=open;endFill=0;" edge="1" parent="1" source="K0kKmlpVppl7YNi_9mcc-12" target="ggT2yQSoRFMAll5U3xAD-10">
          <mxGeometry relative="1" as="geometry">
            <Array as="points">
              <mxPoint x="348" y="1284" />
            </Array>
          </mxGeometry>
        </mxCell>
        <mxCell id="ggT2yQSoRFMAll5U3xAD-14" value="adição" style="edgeLabel;html=1;align=center;verticalAlign=middle;resizable=0;points=[];fontSize=12;fontFamily=Helvetica;fontColor=default;labelBackgroundColor=default;" vertex="1" connectable="0" parent="ggT2yQSoRFMAll5U3xAD-12">
          <mxGeometry x="0.0756" relative="1" as="geometry">
            <mxPoint as="offset" />
          </mxGeometry>
        </mxCell>
        <mxCell id="ggT2yQSoRFMAll5U3xAD-13" style="edgeStyle=none;shape=connector;curved=0;rounded=1;orthogonalLoop=1;jettySize=auto;html=1;entryX=0.525;entryY=0;entryDx=0;entryDy=0;entryPerimeter=0;strokeColor=default;align=center;verticalAlign=middle;fontFamily=Helvetica;fontSize=12;fontColor=default;labelBackgroundColor=default;startSize=8;endArrow=open;endSize=8;endFill=0;" edge="1" parent="1" source="K0kKmlpVppl7YNi_9mcc-12" target="ggT2yQSoRFMAll5U3xAD-8">
          <mxGeometry relative="1" as="geometry">
            <Array as="points">
              <mxPoint x="520" y="1283" />
            </Array>
          </mxGeometry>
        </mxCell>
        <mxCell id="ggT2yQSoRFMAll5U3xAD-15" value="remoção" style="edgeLabel;html=1;align=center;verticalAlign=middle;resizable=0;points=[];fontSize=12;fontFamily=Helvetica;fontColor=default;labelBackgroundColor=default;" vertex="1" connectable="0" parent="ggT2yQSoRFMAll5U3xAD-13">
          <mxGeometry x="0.106" relative="1" as="geometry">
            <mxPoint y="-5" as="offset" />
          </mxGeometry>
        </mxCell>
        <mxCell id="ggT2yQSoRFMAll5U3xAD-16" style="edgeStyle=none;shape=connector;curved=0;rounded=1;orthogonalLoop=1;jettySize=auto;html=1;entryX=0.506;entryY=-0.006;entryDx=0;entryDy=0;entryPerimeter=0;strokeColor=default;align=center;verticalAlign=middle;fontFamily=Helvetica;fontSize=12;fontColor=default;labelBackgroundColor=default;startSize=8;endArrow=open;endSize=8;endFill=0;" edge="1" parent="1" source="ggT2yQSoRFMAll5U3xAD-10" target="ggT2yQSoRFMAll5U3xAD-11">
          <mxGeometry relative="1" as="geometry" />
        </mxCell>
        <mxCell id="ggT2yQSoRFMAll5U3xAD-17" style="edgeStyle=none;shape=connector;curved=0;rounded=1;orthogonalLoop=1;jettySize=auto;html=1;entryX=0.507;entryY=0.006;entryDx=0;entryDy=0;entryPerimeter=0;strokeColor=default;align=center;verticalAlign=middle;fontFamily=Helvetica;fontSize=12;fontColor=default;labelBackgroundColor=default;startSize=8;endArrow=open;endSize=8;endFill=0;" edge="1" parent="1" source="ggT2yQSoRFMAll5U3xAD-8" target="ggT2yQSoRFMAll5U3xAD-9">
          <mxGeometry relative="1" as="geometry" />
        </mxCell>
        <mxCell id="ggT2yQSoRFMAll5U3xAD-18" style="edgeStyle=none;shape=connector;curved=0;rounded=1;orthogonalLoop=1;jettySize=auto;html=1;strokeColor=default;align=center;verticalAlign=middle;fontFamily=Helvetica;fontSize=12;fontColor=default;labelBackgroundColor=default;startSize=8;endArrow=open;endSize=8;endFill=0;" edge="1" parent="1" source="ggT2yQSoRFMAll5U3xAD-11" target="K0kKmlpVppl7YNi_9mcc-22">
          <mxGeometry relative="1" as="geometry" />
        </mxCell>
        <mxCell id="ggT2yQSoRFMAll5U3xAD-19" style="edgeStyle=none;shape=connector;curved=0;rounded=1;orthogonalLoop=1;jettySize=auto;html=1;entryX=0.647;entryY=0.13;entryDx=0;entryDy=0;entryPerimeter=0;strokeColor=default;align=center;verticalAlign=middle;fontFamily=Helvetica;fontSize=12;fontColor=default;labelBackgroundColor=default;startSize=8;endArrow=open;endSize=8;endFill=0;" edge="1" parent="1" source="ggT2yQSoRFMAll5U3xAD-9" target="K0kKmlpVppl7YNi_9mcc-22">
          <mxGeometry relative="1" as="geometry" />
        </mxCell>
        <mxCell id="ggT2yQSoRFMAll5U3xAD-20" value="[Configurações&lt;div&gt;consistentes]&lt;/div&gt;" style="text;html=1;align=center;verticalAlign=middle;resizable=0;points=[];autosize=1;strokeColor=none;fillColor=none;" vertex="1" parent="1">
          <mxGeometry x="80" y="1482" width="99" height="41" as="geometry" />
        </mxCell>
        <mxCell id="ggT2yQSoRFMAll5U3xAD-21" value="Exibir aviso de sobrecarga no display interno" style="rounded=1;whiteSpace=wrap;html=1;fontSize=11;" vertex="1" parent="1">
          <mxGeometry x="812" y="575" width="120" height="60" as="geometry" />
        </mxCell>
        <mxCell id="ggT2yQSoRFMAll5U3xAD-23" style="edgeStyle=none;shape=connector;curved=0;rounded=1;orthogonalLoop=1;jettySize=auto;html=1;entryX=0.492;entryY=-0.007;entryDx=0;entryDy=0;entryPerimeter=0;strokeColor=default;align=center;verticalAlign=middle;fontFamily=Helvetica;fontSize=12;fontColor=default;labelBackgroundColor=default;startSize=8;endArrow=open;endFill=0;endSize=8;" edge="1" parent="1" source="ggT2yQSoRFMAll5U3xAD-21" target="K0kKmlpVppl7YNi_9mcc-49">
          <mxGeometry relative="1" as="geometry" />
        </mxCell>
        <mxCell id="ggT2yQSoRFMAll5U3xAD-27" value="" style="edgeStyle=none;shape=connector;curved=0;rounded=1;orthogonalLoop=1;jettySize=auto;html=1;strokeColor=default;align=center;verticalAlign=middle;fontFamily=Helvetica;fontSize=12;fontColor=default;labelBackgroundColor=default;startSize=8;endArrow=open;endFill=0;endSize=8;" edge="1" parent="1" source="ggT2yQSoRFMAll5U3xAD-24" target="ggT2yQSoRFMAll5U3xAD-26">
          <mxGeometry relative="1" as="geometry" />
        </mxCell>
        <mxCell id="ggT2yQSoRFMAll5U3xAD-24" value="Envia elevadores ao andar mais próximo" style="rounded=1;whiteSpace=wrap;html=1;fontSize=12;" vertex="1" parent="1">
          <mxGeometry x="543" y="639" width="120" height="60" as="geometry" />
        </mxCell>
        <mxCell id="ggT2yQSoRFMAll5U3xAD-25" style="edgeStyle=none;shape=connector;curved=0;rounded=1;orthogonalLoop=1;jettySize=auto;html=1;entryX=0.499;entryY=0.002;entryDx=0;entryDy=0;entryPerimeter=0;strokeColor=default;align=center;verticalAlign=middle;fontFamily=Helvetica;fontSize=12;fontColor=default;labelBackgroundColor=default;startSize=8;endArrow=open;endFill=0;endSize=8;" edge="1" parent="1" source="K0kKmlpVppl7YNi_9mcc-38" target="ggT2yQSoRFMAll5U3xAD-24">
          <mxGeometry relative="1" as="geometry" />
        </mxCell>
        <mxCell id="ggT2yQSoRFMAll5U3xAD-26" value="Abre as portas dos elevadores" style="rounded=1;whiteSpace=wrap;html=1;fontSize=12;" vertex="1" parent="1">
          <mxGeometry x="543" y="752" width="120" height="60" as="geometry" />
        </mxCell>
        <mxCell id="ggT2yQSoRFMAll5U3xAD-29" value="&lt;div style=&quot;&quot;&gt;&lt;span style=&quot;font-size: 10px;&quot;&gt;Balança indica&lt;/span&gt;&lt;/div&gt;&lt;div style=&quot;&quot;&gt;&lt;span style=&quot;font-size: 10px;&quot;&gt;elevador vazio?&lt;/span&gt;&lt;/div&gt;" style="rhombus;whiteSpace=wrap;html=1;fontSize=11;align=center;" vertex="1" parent="1">
          <mxGeometry x="547" y="866" width="112" height="74" as="geometry" />
        </mxCell>
        <mxCell id="ggT2yQSoRFMAll5U3xAD-31" style="edgeStyle=none;shape=connector;curved=0;rounded=1;orthogonalLoop=1;jettySize=auto;html=1;entryX=0.498;entryY=0;entryDx=0;entryDy=0;entryPerimeter=0;strokeColor=default;align=center;verticalAlign=middle;fontFamily=Helvetica;fontSize=12;fontColor=default;labelBackgroundColor=default;startSize=8;endArrow=open;endFill=0;endSize=8;" edge="1" parent="1" source="ggT2yQSoRFMAll5U3xAD-26" target="ggT2yQSoRFMAll5U3xAD-29">
          <mxGeometry relative="1" as="geometry" />
        </mxCell>
        <mxCell id="ggT2yQSoRFMAll5U3xAD-32" value="Fecha as portas dos elevadores" style="rounded=1;whiteSpace=wrap;html=1;fontSize=12;" vertex="1" parent="1">
          <mxGeometry x="545" y="994" width="120" height="60" as="geometry" />
        </mxCell>
        <mxCell id="ggT2yQSoRFMAll5U3xAD-33" style="edgeStyle=none;shape=connector;curved=0;rounded=1;orthogonalLoop=1;jettySize=auto;html=1;entryX=0.485;entryY=0;entryDx=0;entryDy=0;entryPerimeter=0;strokeColor=default;align=center;verticalAlign=middle;fontFamily=Helvetica;fontSize=12;fontColor=default;labelBackgroundColor=default;startSize=8;endArrow=open;endFill=0;endSize=8;" edge="1" parent="1" source="ggT2yQSoRFMAll5U3xAD-29" target="ggT2yQSoRFMAll5U3xAD-32">
          <mxGeometry relative="1" as="geometry" />
        </mxCell>
        <mxCell id="ggT2yQSoRFMAll5U3xAD-36" value="sim" style="edgeLabel;html=1;align=center;verticalAlign=middle;resizable=0;points=[];fontSize=12;fontFamily=Helvetica;fontColor=default;labelBackgroundColor=default;" vertex="1" connectable="0" parent="ggT2yQSoRFMAll5U3xAD-33">
          <mxGeometry x="-0.1495" y="-1" relative="1" as="geometry">
            <mxPoint x="1" as="offset" />
          </mxGeometry>
        </mxCell>
        <mxCell id="ggT2yQSoRFMAll5U3xAD-34" value="Desativa chamadas" style="rounded=1;whiteSpace=wrap;html=1;fontSize=12;" vertex="1" parent="1">
          <mxGeometry x="546" y="1101" width="120" height="60" as="geometry" />
        </mxCell>
        <mxCell id="ggT2yQSoRFMAll5U3xAD-35" style="edgeStyle=none;shape=connector;curved=0;rounded=1;orthogonalLoop=1;jettySize=auto;html=1;entryX=0.5;entryY=-0.007;entryDx=0;entryDy=0;entryPerimeter=0;strokeColor=default;align=center;verticalAlign=middle;fontFamily=Helvetica;fontSize=12;fontColor=default;labelBackgroundColor=default;startSize=8;endArrow=open;endFill=0;endSize=8;" edge="1" parent="1" source="ggT2yQSoRFMAll5U3xAD-32" target="ggT2yQSoRFMAll5U3xAD-34">
          <mxGeometry relative="1" as="geometry" />
        </mxCell>
        <mxCell id="ggT2yQSoRFMAll5U3xAD-37" style="edgeStyle=none;shape=connector;curved=0;rounded=1;orthogonalLoop=1;jettySize=auto;html=1;strokeColor=default;align=center;verticalAlign=middle;fontFamily=Helvetica;fontSize=12;fontColor=default;labelBackgroundColor=default;startSize=8;endArrow=open;endFill=0;endSize=8;elbow=horizontal;" edge="1" parent="1" source="ggT2yQSoRFMAll5U3xAD-29" target="ggT2yQSoRFMAll5U3xAD-29">
          <mxGeometry relative="1" as="geometry" />
        </mxCell>
        <mxCell id="ggT2yQSoRFMAll5U3xAD-38" value="não" style="edgeLabel;html=1;align=center;verticalAlign=middle;resizable=0;points=[];fontSize=12;fontFamily=Helvetica;fontColor=default;labelBackgroundColor=default;" vertex="1" connectable="0" parent="ggT2yQSoRFMAll5U3xAD-37">
          <mxGeometry x="-0.0691" relative="1" as="geometry">
            <mxPoint x="14" y="2" as="offset" />
          </mxGeometry>
        </mxCell>
        <mxCell id="ggT2yQSoRFMAll5U3xAD-39" value="Envia elevadores para o térreo" style="rounded=1;whiteSpace=wrap;html=1;fontSize=11;" vertex="1" parent="1">
          <mxGeometry x="1133" y="580" width="120" height="60" as="geometry" />
        </mxCell>
        <mxCell id="ggT2yQSoRFMAll5U3xAD-40" style="edgeStyle=none;shape=connector;curved=0;rounded=1;orthogonalLoop=1;jettySize=auto;html=1;entryX=0.513;entryY=0.02;entryDx=0;entryDy=0;entryPerimeter=0;strokeColor=default;align=center;verticalAlign=middle;fontFamily=Helvetica;fontSize=12;fontColor=default;labelBackgroundColor=default;startSize=8;endArrow=open;endFill=0;endSize=8;" edge="1" parent="1" source="K0kKmlpVppl7YNi_9mcc-44" target="ggT2yQSoRFMAll5U3xAD-39">
          <mxGeometry relative="1" as="geometry" />
        </mxCell>
        <mxCell id="ggT2yQSoRFMAll5U3xAD-41" value="Abre as portas" style="rounded=1;whiteSpace=wrap;html=1;fontSize=11;" vertex="1" parent="1">
          <mxGeometry x="1131" y="700" width="120" height="60" as="geometry" />
        </mxCell>
        <mxCell id="ggT2yQSoRFMAll5U3xAD-42" style="edgeStyle=none;shape=connector;curved=0;rounded=1;orthogonalLoop=1;jettySize=auto;html=1;entryX=0.517;entryY=0;entryDx=0;entryDy=0;entryPerimeter=0;strokeColor=default;align=center;verticalAlign=middle;fontFamily=Helvetica;fontSize=12;fontColor=default;labelBackgroundColor=default;startSize=8;endArrow=open;endFill=0;endSize=8;" edge="1" parent="1" source="ggT2yQSoRFMAll5U3xAD-39" target="ggT2yQSoRFMAll5U3xAD-41">
          <mxGeometry relative="1" as="geometry" />
        </mxCell>
        <mxCell id="ggT2yQSoRFMAll5U3xAD-45" style="edgeStyle=none;shape=connector;curved=0;rounded=1;orthogonalLoop=1;jettySize=auto;html=1;strokeColor=default;align=center;verticalAlign=middle;fontFamily=Helvetica;fontSize=12;fontColor=default;labelBackgroundColor=default;startSize=8;endArrow=none;endFill=0;endSize=8;" edge="1" parent="1" source="ggT2yQSoRFMAll5U3xAD-43">
          <mxGeometry relative="1" as="geometry">
            <mxPoint x="877" y="1051" as="targetPoint" />
            <Array as="points">
              <mxPoint x="1190" y="919" />
              <mxPoint x="876" y="922" />
            </Array>
          </mxGeometry>
        </mxCell>
        <mxCell id="ggT2yQSoRFMAll5U3xAD-43" value="Desativa Chamadas" style="rounded=1;whiteSpace=wrap;html=1;fontSize=11;" vertex="1" parent="1">
          <mxGeometry x="1131" y="809" width="120" height="60" as="geometry" />
        </mxCell>
        <mxCell id="ggT2yQSoRFMAll5U3xAD-44" style="edgeStyle=none;shape=connector;curved=0;rounded=1;orthogonalLoop=1;jettySize=auto;html=1;entryX=0.505;entryY=0.003;entryDx=0;entryDy=0;entryPerimeter=0;strokeColor=default;align=center;verticalAlign=middle;fontFamily=Helvetica;fontSize=12;fontColor=default;labelBackgroundColor=default;startSize=8;endArrow=open;endFill=0;endSize=8;" edge="1" parent="1" source="ggT2yQSoRFMAll5U3xAD-41" target="ggT2yQSoRFMAll5U3xAD-43">
          <mxGeometry relative="1" as="geometry" />
        </mxCell>
      </root>
    </mxGraphModel>
  </diagram>
</mxfile>
